#!OML:ASF E:\motion texture\Top Level 1\Subject 1\Session 1\male.ASF
:FULLY-SPECIFIED
:DEGREES
297
root 6.90363 17.863 1.19376 522.027 -86.0656 -519.343
lowerback 27.934 23.4895 12.973
upperback 12.2943 41.3268 13.2586
thorax -174.204 112.435 -1.07366
lowerneck 30.5135 30.4715 20.0318
upperneck -40.3669 74.7964 -48.3048
head 277.889 115.784 151.035
rclavicle 3.26752e-014 -5.31749e-015
rhumerus 63.908 3.95758 114.895
rradius 90.3115
rwrist -65.257
rhand -19.3321 -66.1188
rfingers 7.12502
rthumb 6.98456 95.9836
lclavicle 3.26752e-014 -5.31749e-015
lhumerus 69.5757 -9.91321 -135.761
lradius 129.5
lwrist 54.2075
lhand -16.3917 63.5301
lfingers 7.12502
lthumb 9.82227 266.719
rfemur -29.4263 -5.1977 18.9835
rtibia 28.4411
rfoot -3.06754 -7.54819
rtoes -0.268079
lfemur -3.71804 -9.57663 -23.3052
ltibia 21.3056
lfoot -12.8859 -5.82775
ltoes 4.3813
298
root 6.78892 17.8578 1.16839 520.594 -86.0849 -517.839
lowerback 28.0445 23.4763 13.0563
upperback 12.3381 41.358 13.3265
thorax -174.265 112.631 -1.16771
lowerneck 30.5912 30.5184 19.9694
upperneck -41.076 74.8845 -49.0256
head 277.71 115.783 151.006
rclavicle 2.75565e-014 -7.81224e-014
rhumerus 64.6038 3.76586 114.981
rradius 91.2232
rwrist -65.6534
rhand -19.4813 -66.4246
rfingers 7.12502
rthumb 6.84056 96.294
lclavicle 2.75565e-014 -7.81224e-014
lhumerus 68.5972 -9.84468 -134.95
lradius 128.815
lwrist 54.1011
lhand -16.5332 63.689
lfingers 7.12502
lthumb 9.68572 266.554
rfemur -29.3728 -5.13955 19.1842
rtibia 27.534
rfoot -2.85633 -7.36436
rtoes -0.119613
lfemur -3.61687 -9.43921 -23.1551
ltibia 21.745
lfoot -13.056 -5.95894
ltoes 3.97019
299
root 6.67417 17.8528 1.14324 519.101 -86.0944 -516.277
lowerback 28.1384 23.4678 13.1292
upperback 12.3737 41.3802 13.3831
thorax -174.327 112.846 -1.25944
lowerneck 30.6527 30.5576 19.8983
upperneck -41.7325 74.9737 -49.6819
head 277.562 115.764 150.967
rclavicle -9.47706e-014 6.14245e-014
rhumerus 65.331 3.5686 115.068
rradius 92.1958
rwrist -66.021
rhand -19.603 -66.7365
rfingers 7.12502
rthumb 6.72304 96.6098
lclavicle -9.47706e-014 6.14245e-014
lhumerus 67.6528 -9.71387 -134.065
lradius 128.02
lwrist 54.0069
lhand -16.65 63.7676
lfingers 7.12502
lthumb 9.57308 266.47
rfemur -29.3043 -5.07819 19.4
rtibia 26.7161
rfoot -2.6501 -7.18143
rtoes 0.113589
lfemur -3.54701 -9.28315 -22.9898
ltibia 22.2362
lfoot -13.1941 -6.11696
ltoes 3.54247
300
root 6.55929 17.8482 1.1183 517.551 -86.0951 -514.66
lowerback 28.2131 23.4647 13.2023
upperback 12.3957 41.3875 13.4278
thorax -174.397 113.079 -1.35461
lowerneck 30.6978 30.5923 19.8159
upperneck -42.3569 75.0728 -50.2919
head 277.475 115.73 150.945
rclavicle -3.65764e-014 -3.40916e-014
rhumerus 66.0817 3.36179 115.16
rradius 93.2276
rwrist -66.3545
rhand -19.6929 -67.0503
rfingers 7.12502
rthumb 6.63627 96.9263
lclavicle -3.65764e-014 -3.40916e-014
lhumerus 66.7446 -9.53104 -133.11
lradius 127.117
lwrist 53.915
lhand -16.727 63.7659
lfingers 7.12502
lthumb 9.49878 266.468
rfemur -29.2198 -5.01285 19.6295
rtibia 25.985
rfoot -2.45342 -7.00073
rtoes 0.437629
lfemur -3.51064 -9.10848 -22.8083
ltibia 22.7809
lfoot -13.2952 -6.30632
ltoes 3.09938
301
root 6.44431 17.844 1.09358 515.919 -86.09 -512.963
lowerback 28.2804 23.4635 13.2826
upperback 12.4101 41.3867 13.4687
thorax -174.473 113.315 -1.45339
lowerneck 30.7315 30.6231 19.7271
upperneck -42.9586 75.1776 -50.8707
head 277.44 115.689 150.946
rclavicle 9.89451e-014 7.90169e-014
rhumerus 66.8655 3.14113 115.258
rradius 94.3178
rwrist -66.649
rhand -19.7462 -67.3566
rfingers 7.12502
rthumb 6.58484 97.2343
lclavicle 9.89451e-014 7.90169e-014
lhumerus 65.8866 -9.29157 -132.103
lradius 126.106
lwrist 53.8154
lhand -16.7583 63.6905
lfingers 7.12502
lthumb 9.46859 266.542
rfemur -29.1206 -4.9439 19.8716
rtibia 25.3387
rfoot -2.26906 -6.82667
rtoes 0.850539
lfemur -3.51197 -8.91812 -22.6087
ltibia 23.3818
lfoot -13.3535 -6.53105
ltoes 2.64469
302
root 6.32916 17.8403 1.0691 514.201 -86.0796 -511.181
lowerback 28.3355 23.4647 13.3718
upperback 12.4131 41.3733 13.503
thorax -174.555 113.558 -1.55712
lowerneck 30.7524 30.6505 19.629
upperneck -43.5486 75.2932 -51.4269
head 277.467 115.639 150.974
rclavicle 8.14023e-014 3.52843e-014
rhumerus 67.6737 2.90646 115.365
rradius 95.4615
rwrist -66.9014
rhand -19.7612 -67.6373
rfingers 7.12502
rthumb 6.57035 97.5154
lclavicle 8.14023e-014 3.52843e-014
lhumerus 65.0775 -9.00823 -131.057
lradius 124.99
lwrist 53.7079
lhand -16.7392 63.5232
lfingers 7.12502
lthumb 9.48703 266.71
rfemur -29.0045 -4.86994 20.125
rtibia 24.772
rfoot -2.09942 -6.66065
rtoes 1.34763
lfemur -3.55102 -8.71343 -22.3903
ltibia 24.0375
lfoot -13.3608 -6.79377
ltoes 2.17277
303
root 6.21375 17.8372 1.04487 512.392 -86.0616 -509.312
lowerback 28.3727 23.4697 13.4674
upperback 12.4014 41.3439 13.5269
thorax -174.647 113.812 -1.66514
lowerneck 30.7557 30.6719 19.521
upperneck -44.0935 75.4183 -51.9243
head 277.561 115.575 151.024
rclavicle 1.28316e-013 2.75317e-014
rhumerus 68.4951 2.66153 115.474
rradius 96.6544
rwrist -67.104
rhand -19.7333 -67.8845
rfingers 7.12502
rthumb 6.59728 97.7618
lclavicle 1.28316e-013 2.75317e-014
lhumerus 64.3147 -8.69353 -129.987
lradius 123.774
lwrist 53.5979
lhand -16.6779 63.2691
lfingers 7.12502
lthumb 9.54614 266.967
rfemur -28.8717 -4.78805 20.39
rtibia 24.2844
rfoot -1.94821 -6.50396
rtoes 1.92241
lfemur -3.62648 -8.49461 -22.1516
ltibia 24.7471
lfoot -13.3128 -7.09518
ltoes 1.6826
304
root 6.09813 17.8347 1.02089 510.481 -86.0373 -507.344
lowerback 28.3989 23.4764 13.572
upperback 12.3791 41.3028 13.545
thorax -174.744 114.071 -1.77697
lowerneck 30.7452 30.6881 19.4053
upperneck -44.6097 75.551 -52.3829
head 277.711 115.501 151.095
rclavicle 1.0635e-014 -1.10325e-013
rhumerus 69.3326 2.40368 115.585
rradius 97.8907
rwrist -67.252
rhand -19.6573 -68.0939
rfingers 7.12502
rthumb 6.67061 97.9688
lclavicle 1.0635e-014 -1.10325e-013
lhumerus 63.6039 -8.35225 -128.91
lradius 122.465
lwrist 53.4812
lhand -16.5851 62.9556
lfingers 7.12502
lthumb 9.63568 267.285
rfemur -28.7222 -4.69721 20.6647
rtibia 23.8716
rfoot -1.81896 -6.3599
rtoes 2.57726
lfemur -3.74087 -8.26381 -21.8921
ltibia 25.5119
lfoot -13.2045 -7.43345
ltoes 1.19783
305
root 5.98229 17.8328 0.997311 508.47 -86.0078 -505.278
lowerback 28.4161 23.4835 13.6864
upperback 12.3476 41.2511 13.5588
thorax -174.846 114.329 -1.89205
lowerneck 30.7227 30.6993 19.2828
upperneck -45.1041 75.691 -52.8112
head 277.911 115.419 151.187
rclavicle 5.11871e-014 -4.56211e-014
rhumerus 70.1839 2.13156 115.695
rradius 99.1641
rwrist -67.3399
rhand -19.5329 -68.2533
rfingers 7.12502
rthumb 6.79073 98.1244
lclavicle 5.11871e-014 -4.56211e-014
lhumerus 62.9467 -7.99332 -127.839
lradius 121.068
lwrist 53.3412
lhand -16.4668 62.5726
lfingers 7.12502
lthumb 9.74978 267.673
rfemur -28.5552 -4.59902 20.9468
rtibia 23.5272
rfoot -1.71288 -6.22862
rtoes 3.29727
lfemur -3.89517 -8.02364 -21.6137
ltibia 26.3319
lfoot -13.0349 -7.80448
ltoes 0.722117
306
root 5.86622 17.8315 0.97407 506.377 -85.97 -503.133
lowerback 28.423 23.4921 13.8105
upperback 12.3058 41.1882 13.5673
thorax -174.954 114.59 -2.01047
lowerneck 30.6863 30.7047 19.1536
upperneck -45.5643 75.838 -53.196
head 278.169 115.328 151.303
rclavicle -6.6891e-014 5.56597e-015
rhumerus 71.0407 1.84747 115.805
rradius 100.467
rwrist -67.3627
rhand -19.3578 -68.3509
rfingers 7.12502
rthumb 6.95974 98.2165
lclavicle -6.6891e-014 5.56597e-015
lhumerus 62.3411 -7.62686 -126.787
lradius 119.588
lwrist 53.1701
lhand -16.3073 62.121
lfingers 7.12502
lthumb 9.90373 268.132
rfemur -28.3719 -4.48823 21.2362
rtibia 23.249
rfoot -1.6337 -6.11235
rtoes 4.06997
lfemur -4.08984 -7.77267 -21.315
ltibia 27.2072
lfoot -12.8012 -8.2042
ltoes 0.249206
307
root 5.74994 17.8309 0.951292 504.205 -85.9242 -500.914
lowerback 28.4193 23.5019 13.9445
upperback 12.2535 41.1139 13.5707
thorax -175.067 114.851 -2.13203
lowerneck 30.6367 30.7048 19.0187
upperneck -45.9906 75.9916 -53.5384
head 278.483 115.23 151.443
rclavicle 5.94366e-014 -2.68359e-014
rhumerus 71.8961 1.55242 115.911
rradius 101.79
rwrist -67.3171
rhand -19.1312 -68.3797
rfingers 7.12502
rthumb 7.17846 98.238
lclavicle 5.94366e-014 -2.68359e-014
lhumerus 61.7879 -7.26185 -125.762
lradius 118.032
lwrist 52.9755
lhand -16.1131 61.62
lfingers 7.12502
lthumb 10.091 268.642
rfemur -28.1724 -4.3655 21.5313
rtibia 23.0322
rfoot -1.58427 -6.01095
rtoes 4.88051
lfemur -4.32513 -7.51329 -20.9973
ltibia 28.1364
lfoot -12.5015 -8.62986
ltoes -0.19574
308
root 5.63352 17.8311 0.928961 501.986 -85.8691 -498.65
lowerback 28.4092 23.5122 14.0892
upperback 12.1936 41.0313 13.5717
thorax -175.184 115.109 -2.25619
lowerneck 30.5758 30.6998 18.8797
upperneck -46.3865 76.1501 -53.8442
head 278.847 115.127 151.608
rclavicle -7.72278e-014 -1.43125e-014
rhumerus 72.7476 1.24723 116.01
rradius 103.124
rwrist -67.2018
rhand -18.8558 -68.3254
rfingers 7.12502
rthumb 7.44438 98.1744
lclavicle -7.72278e-014 -1.43125e-014
lhumerus 61.2878 -6.90296 -124.769
lradius 116.408
lwrist 52.7643
lhand -15.8883 61.0717
lfingers 7.12502
lthumb 10.3079 269.201
rfemur -27.9564 -4.22851 21.8306
rtibia 22.8714
rfoot -1.56843 -5.92389
rtoes 5.72222
lfemur -4.60171 -7.24418 -20.6613
ltibia 29.1193
lfoot -12.1449 -9.07731
ltoes -0.653184
309
root 5.51686 17.8319 0.907139 499.7 -85.8056 -496.324
lowerback 28.3882 23.5232 14.2445
upperback 12.1231 40.9368 13.5676
thorax -175.307 115.365 -2.38321
lowerneck 30.5006 30.6886 18.7354
upperneck -46.7374 76.3148 -54.0965
head 279.273 115.017 151.801
rclavicle 1.09332e-015 -9.54166e-015
rhumerus 73.5814 0.934669 116.1
rradius 104.461
rwrist -67.0219
rhand -18.535 -68.1926
rfingers 7.12502
rthumb 7.75398 98.0304
lclavicle 1.09332e-015 -9.54166e-015
lhumerus 60.8342 -6.56196 -123.813
lradius 114.724
lwrist 52.5359
lhand -15.6356 60.4882
lfingers 7.12502
lthumb 10.5517 269.797
rfemur -27.7224 -4.07664 22.1331
rtibia 22.7596
rfoot -1.58708 -5.8535
rtoes 6.57871
lfemur -4.91793 -6.97074 -20.3071
ltibia 30.1528
lfoot -11.731 -9.53896
ltoes -1.09496
